<?xml version="1.0" encoding="UTF-8" standalone="no"?>
<!-- Created with Inkscape (http://www.inkscape.org/) -->

<svg
   width="169.33333mm"
   height="169.33333mm"
   viewBox="0 0 169.33333 169.33333"
   version="1.1"
   id="svg5"
   inkscape:version="1.1.2 (0a00cf5339, 2022-02-04)"
   sodipodi:docname="cloud.svg"
   xmlns:inkscape="http://www.inkscape.org/namespaces/inkscape"
   xmlns:sodipodi="http://sodipodi.sourceforge.net/DTD/sodipodi-0.dtd"
   xmlns="http://www.w3.org/2000/svg"
   xmlns:svg="http://www.w3.org/2000/svg">
  <sodipodi:namedview
     id="namedview7"
     pagecolor="#ffffff"
     bordercolor="#666666"
     borderopacity="1.0"
     inkscape:pageshadow="2"
     inkscape:pageopacity="0.0"
     inkscape:pagecheckerboard="0"
     inkscape:document-units="mm"
     showgrid="false"
     fit-margin-top="0"
     fit-margin-left="0"
     fit-margin-right="0"
     fit-margin-bottom="0"
     inkscape:zoom="0.81638692"
     inkscape:cx="347.87427"
     inkscape:cy="337.46254"
     inkscape:window-width="1920"
     inkscape:window-height="1007"
     inkscape:window-x="0"
     inkscape:window-y="0"
     inkscape:window-maximized="1"
     inkscape:current-layer="layer1" />
  <defs
     id="defs2" />
  <g
     inkscape:label="Layer 1"
     inkscape:groupmode="layer"
     id="layer1"
     transform="translate(-17.775087,-59.175259)">
    <path
       style="fill:#000000;stroke-width:0.264583"
       d="m 97.326475,200.28637 c -0.335171,-0.33518 -0.174868,-1.0905 0.26746,-1.26024 0.248203,-0.0952 0.617222,0.003 0.837168,0.223 0.323162,0.32316 0.332599,0.46648 0.05292,0.80347 -0.357256,0.43047 -0.85943,0.53188 -1.157547,0.23377 z m -16.220662,-4.98395 c -0.225007,-0.58636 0.582261,-1.41168 0.985946,-1.00799 0.411742,0.41174 0.190609,1.25064 -0.357492,1.3562 -0.253431,0.0488 -0.536233,-0.10789 -0.628454,-0.34821 z m 13.429242,-2.21719 c -0.314267,-0.31427 -0.453136,-0.73497 -0.375931,-1.13885 0.106633,-0.55781 -0.0083,-0.67278 -0.890696,-0.8907 -0.823965,-0.2035 -1.028401,-0.38228 -1.094896,-0.95752 -0.06871,-0.59439 0.108585,-0.81884 1.11066,-1.4061 1.0302,-0.60374 1.248164,-0.89056 1.602171,-2.1083 0.565328,-1.94466 1.608638,-2.2546 2.263942,-0.67256 0.277003,0.66875 0.436295,0.75075 1.3765,0.7086 1.522725,-0.0683 1.812535,0.49611 0.925259,1.80185 l -0.684827,1.00781 0.51434,1.00819 c 0.617275,1.20996 0.642789,1.65163 0.120449,2.08513 -0.315532,0.26187 -0.609103,0.24079 -1.475693,-0.10595 l -1.081799,-0.43285 -0.747128,0.79981 c -0.879631,0.94165 -0.915268,0.94852 -1.562351,0.30144 z m 2.980542,-2.04534 c 1.098005,0.45878 1.086241,0.46997 0.56216,-0.53491 -0.502047,-0.96263 -0.499822,-1.4215 0.01042,-2.14998 0.398189,-0.5685 0.388379,-0.57973 -0.373542,-0.42734 -0.667345,0.13347 -0.841303,0.0453 -1.182283,-0.59952 -0.419634,-0.7935 -0.49417,-0.72427 -0.819351,0.76106 -0.106161,0.48491 -0.484073,0.89204 -1.146579,1.23522 -1.012947,0.52472 -1.013807,0.52229 0.334695,0.94358 0.224441,0.0701 0.396875,0.43502 0.396875,0.83986 v 0.71589 l 0.630094,-0.59195 c 0.598588,-0.56234 0.677966,-0.57194 1.5875,-0.19191 z m -8.270769,1.67636 c -0.421833,-0.42183 -0.367327,-0.90107 0.123925,-1.08959 0.556755,-0.21364 0.902166,0.0242 0.902166,0.62132 0,0.59197 -0.619622,0.87474 -1.026091,0.46827 z m 14.909552,-0.99633 c -0.21013,-0.34001 0.34195,-1.04675 0.8177,-1.04675 0.52981,0 0.7294,0.50515 0.37047,0.93763 -0.37378,0.45039 -0.94484,0.50283 -1.18817,0.10912 z m 6.34292,-0.54063 c -0.27266,-0.44117 0.34057,-0.94708 0.70557,-0.58209 0.3053,0.30531 0.11422,0.86972 -0.29445,0.86972 -0.12835,0 -0.31335,-0.12943 -0.41112,-0.28763 z m 7.57099,0.033 c -0.50539,-0.31234 -0.22101,-1.20059 0.38438,-1.20059 0.33411,0 0.55473,0.20458 0.60567,0.56164 0.0874,0.61256 -0.46056,0.9662 -0.99005,0.63895 z m -47.905704,-2.25892 c -0.262782,-0.31663 -0.262782,-0.47712 0,-0.79375 0.406707,-0.49005 0.56016,-0.49372 1.196213,-0.0286 0.427881,0.31288 0.450506,0.43222 0.150466,0.79375 -0.441799,0.53233 -0.920202,0.54251 -1.346679,0.0286 z m 62.992524,-1.67926 c -0.17992,-0.33619 -0.16632,-0.58382 0.0436,-0.79375 0.42964,-0.42964 1.17255,-0.37927 1.3533,0.0918 0.40019,1.0429 -0.87225,1.68234 -1.39691,0.70199 z m -53.550775,-0.16158 c -0.521113,-0.52111 -0.303356,-1.20187 0.384445,-1.20187 0.673025,0 0.931661,0.73262 0.434242,1.23004 -0.350621,0.35062 -0.443074,0.34744 -0.818687,-0.0282 z m 47.758615,-1.66489 c 0.0491,-0.25466 0.2645,-0.46302 0.4788,-0.46302 0.2143,0 0.42976,0.20836 0.4788,0.46302 0.0626,0.32487 -0.0803,0.46302 -0.4788,0.46302 -0.3985,0 -0.54136,-0.13815 -0.4788,-0.46302 z m -13.8059,-0.45965 c -0.43963,-0.52972 -0.14679,-1.19399 0.52637,-1.19399 0.30017,0 0.61489,0.18011 0.69936,0.40024 0.15204,0.3962 -0.31394,1.18726 -0.69936,1.18726 -0.10989,0 -0.34675,-0.17708 -0.52637,-0.39351 z m -26.368193,-0.2751 c -0.193935,-0.50539 0.336444,-0.94058 0.888245,-0.72883 0.499486,0.19167 0.313757,0.97322 -0.257418,1.08322 -0.253431,0.0488 -0.537303,-0.11067 -0.630827,-0.35439 z m 15.514043,-0.26157 c -0.38862,-0.46826 -0.11885,-0.92191 0.54822,-0.92191 0.32749,0 0.51355,0.18147 0.51355,0.50086 0,0.6403 -0.66195,0.90279 -1.06177,0.42105 z m 41.30627,-0.75608 c -0.40916,-0.493 -0.0879,-1.22416 0.53794,-1.22416 0.64198,0 0.91939,0.67632 0.48976,1.19399 -0.40544,0.48853 -0.64155,0.49546 -1.0277,0.0302 z m -23.92195,-0.3649 c -0.31603,-0.0728 -0.45078,-0.30479 -0.39688,-0.6832 0.10165,-0.71352 1.1964,-0.94615 1.4419,-0.30639 0.21007,0.54743 -0.41113,1.13568 -1.04502,0.98959 z m -57.770342,-0.47252 c -0.0859,-0.22385 -0.08205,-0.87063 0.0086,-1.43729 0.175469,-1.09733 0.206023,-1.06728 -1.460239,-1.43612 -0.74513,-0.16494 -1.097303,-0.71176 -0.858758,-1.33339 0.0803,-0.20927 0.870125,-0.59672 1.755162,-0.861 1.569876,-0.46878 1.619805,-0.51234 2.045226,-1.78404 0.692401,-2.06979 1.729835,-2.31361 2.547604,-0.59872 0.417023,0.8745 0.442524,0.88515 1.466104,0.61193 1.059063,-0.28268 1.798024,-0.075 2.011484,0.56543 0.0538,0.16139 -0.317902,0.75359 -0.825997,1.31599 l -0.923814,1.02255 0.511019,1.1414 c 1.034269,2.31011 0.405871,3.00308 -1.760003,1.94083 l -1.376794,-0.67524 -0.849336,0.96734 c -0.900232,1.02531 -2.007812,1.29629 -2.290226,0.56033 z m 3.042081,-2.76799 c 0.179734,0 0.7912,0.23692 1.358813,0.5265 l 1.03202,0.5265 -0.564181,-1.35758 -0.564184,-1.35757 0.778393,-0.65426 c 0.428114,-0.35985 0.599797,-0.59752 0.381516,-0.52815 -1.608966,0.51127 -1.541502,0.52797 -2.081818,-0.51527 -0.461669,-0.89139 -0.542864,-0.9456 -0.713822,-0.47663 -0.76281,2.09255 -0.858883,2.21565 -1.88063,2.40965 l -1.012272,0.19222 0.887117,0.36457 c 0.839983,0.34522 0.877466,0.41667 0.705532,1.34491 l -0.181581,0.98032 0.764151,-0.72761 c 0.420286,-0.40018 0.911209,-0.7276 1.090946,-0.7276 z m 8.899475,1.5791 c -0.102754,-0.16626 -0.06232,-0.42679 0.08984,-0.57895 0.355574,-0.35557 1.184577,-0.0454 1.039913,0.38905 -0.147267,0.4423 -0.895977,0.56815 -1.129749,0.1899 z m 56.507446,-1.43029 c -0.20777,-0.25034 -0.25379,-0.79301 -0.13465,-1.5875 0.17662,-1.17781 0.1638,-1.20714 -0.52787,-1.20714 -0.97602,0 -1.73244,-0.45202 -1.73244,-1.03525 0,-0.65908 0.42204,-0.95552 1.97879,-1.38987 1.23653,-0.34502 1.34687,-0.44827 1.7988,-1.6832 0.79085,-2.16106 1.83623,-2.43146 2.56822,-0.6643 0.36602,0.88365 0.58134,0.94408 1.82232,0.51147 0.63551,-0.22154 0.93359,-0.21369 1.2301,0.0324 0.60084,0.49865 0.4696,1.14436 -0.4024,1.97979 -0.93894,0.89956 -0.96372,1.1431 -0.25728,2.52784 0.41508,0.81364 0.47284,1.17043 0.25527,1.57696 -0.35935,0.67146 -0.76259,0.66123 -2.24054,-0.0568 l -1.19837,-0.58221 -1.00267,0.97909 c -1.0722,1.04698 -1.65177,1.20783 -2.15728,0.59873 z m 3.99037,-2.51203 c 0.59086,0.30143 1.11523,0.5071 1.16528,0.45705 0.05,-0.05 -0.13776,-0.60197 -0.41737,-1.22648 l -0.50837,-1.13549 0.68139,-0.63149 0.68139,-0.63149 -0.92889,0.15074 c -0.86414,0.14023 -0.96428,0.0817 -1.43671,-0.83912 l -0.50783,-0.98986 -0.34113,1.2184 c -0.39483,1.41019 -0.60282,1.62255 -1.86268,1.90174 l -0.92604,0.20522 0.89259,0.23825 c 0.85896,0.22926 0.88728,0.27772 0.75197,1.28655 l -0.14061,1.04831 0.91137,-0.8002 0.91137,-0.80019 z m -42.788847,1.73644 c -0.198585,-0.51751 0.07198,-0.96072 0.586492,-0.96072 0.259757,0 0.370064,0.20114 0.315113,0.57459 -0.102663,0.69771 -0.686146,0.94759 -0.901605,0.38613 z m 13.784527,-0.15788 c -0.0908,-0.28605 -0.0438,-0.95948 0.10454,-1.49653 0.33532,-1.21443 0.24572,-1.35936 -0.9766,-1.57952 -1.23978,-0.22331 -1.64437,-0.54384 -1.64437,-1.30276 0,-0.68758 0.44711,-0.92195 1.75883,-0.92195 1.36662,0 1.85278,-0.3733 2.04407,-1.56953 0.31459,-1.96737 1.7399,-1.96672 2.55503,0.001 0.36507,0.88137 0.31342,0.86612 1.66376,0.49115 0.74881,-0.20793 1.10827,-0.19917 1.38907,0.0339 0.59958,0.49761 0.44912,1.08135 -0.53978,2.09408 l -0.91861,0.94074 0.55759,1.51364 c 0.45418,1.23293 0.49586,1.58803 0.22475,1.91469 -0.54457,0.65617 -1.2257,0.4622 -2.07577,-0.59115 l -0.80073,-0.99218 -1.02203,0.99218 c -1.12697,1.09406 -2.06196,1.28435 -2.31975,0.47211 z m 3.21517,-2.65492 c 0.15535,0 0.5925,0.24388 0.97144,0.54195 l 0.68898,0.54195 -0.38872,-0.93033 c -0.499,-1.19427 -0.51187,-1.12126 0.33889,-1.922 l 0.7276,-0.68483 -0.99087,0.18004 c -0.93936,0.17067 -1.01383,0.13188 -1.43266,-0.74642 -0.48058,-1.0078 -0.88376,-1.01982 -0.88376,-0.0264 0,0.8627 -0.66955,1.45462 -1.67254,1.47863 l -0.841,0.0201 0.92604,0.33893 c 0.97557,0.35705 1.06784,0.64204 0.69103,2.13435 l -0.20042,0.79375 0.89177,-0.85989 c 0.49048,-0.47294 1.01887,-0.8599 1.17422,-0.8599 z m -28.5599,1.24676 c -0.209789,-0.54669 0.199866,-1.04772 0.767299,-0.93844 0.702958,0.13537 0.651203,1.12495 -0.06417,1.22702 -0.308901,0.0441 -0.625308,-0.0858 -0.703124,-0.28858 z m 35.62466,-1.1127 c -0.0916,-0.23882 -0.0397,-0.56108 0.11531,-0.71615 0.40312,-0.40312 1.16692,-0.0347 1.06162,0.5121 -0.11729,0.60904 -0.96511,0.75603 -1.17693,0.20405 z m -63.701201,-1.61315 c -0.213646,-0.55675 0.02424,-0.90216 0.621319,-0.90216 0.52012,0 0.80079,0.45419 0.613126,0.99218 -0.16498,0.47297 -1.042974,0.40894 -1.234445,-0.09 z m 97.921631,0.25351 c -0.31274,-0.31273 -0.20612,-1.09116 0.16918,-1.23518 0.5333,-0.20465 1.03266,0.21082 0.92505,0.76963 -0.0982,0.50963 -0.76601,0.79377 -1.09423,0.46555 z m -27.27256,-0.50423 c -0.0905,-0.23579 0.0164,-0.47308 0.25406,-0.5643 0.49407,-0.18959 1.03471,0.28073 0.78575,0.68355 -0.25963,0.42009 -0.85924,0.35133 -1.03981,-0.11925 z m -35.619228,-1.44519 c 0,-0.39851 0.138152,-0.54136 0.463021,-0.4788 0.254662,0.049 0.463021,0.2645 0.463021,0.4788 0,0.21429 -0.208359,0.42975 -0.463021,0.47879 -0.324869,0.0626 -0.463021,-0.0803 -0.463021,-0.47879 z m 8.304885,-1.17207 c -0.263438,-0.68651 0.105801,-1.25391 0.755912,-1.1616 0.437284,0.0621 0.596495,0.26126 0.596495,0.74617 0,0.48491 -0.159211,0.68406 -0.596495,0.74616 -0.357791,0.0508 -0.660292,-0.0815 -0.755912,-0.33073 z m 47.643243,-1.39052 c -0.37561,-0.37561 -0.37879,-0.46806 -0.0282,-0.81868 0.49742,-0.49742 1.23004,-0.23879 1.23004,0.43424 0,0.6878 -0.68076,0.90556 -1.20187,0.38444 z m -29.0816,-0.96829 c -0.48145,-0.35204 -0.33149,-1.10291 0.26606,-1.33222 0.20282,-0.0778 0.54574,0.0355 0.76205,0.25179 0.73822,0.73822 -0.17855,1.70164 -1.02811,1.08043 z m 12.30402,-0.29087 c -0.71456,-0.86098 0.46797,-1.89688 1.26059,-1.10426 0.33696,0.33696 0.37146,0.5437 0.14956,0.89607 -0.38633,0.61349 -0.99875,0.7039 -1.41015,0.20819 z m -56.537366,-0.27929 c -0.209603,-0.54622 0.07459,-1.19063 0.525076,-1.19063 0.205031,0 0.521002,0.17859 0.702159,0.39688 0.262782,0.31663 0.262782,0.47711 0,0.79375 -0.181157,0.21828 -0.497128,0.39687 -0.702159,0.39687 -0.205031,0 -0.441314,-0.17859 -0.525076,-0.39687 z m 35.265746,0.008 c -0.0821,-0.21407 0.0276,-0.5662 0.24393,-0.78251 0.53212,-0.53212 1.17173,-0.23813 1.17173,0.53858 0,0.49142 -0.14173,0.63315 -0.63316,0.63315 -0.34823,0 -0.70036,-0.17515 -0.7825,-0.38922 z m -44.594012,-0.23869 c -0.355084,-0.42785 -0.117684,-1.22416 0.364953,-1.22416 0.184896,0 0.484391,0.17859 0.665548,0.39687 0.262782,0.31663 0.262782,0.47712 0,0.79375 -0.408228,0.49189 -0.643744,0.49955 -1.030501,0.0335 z m 20.970229,-0.29735 c -0.09143,-0.23827 -0.04402,-0.55544 0.10537,-0.70483 0.431297,-0.4313 1.25386,-0.14061 1.25386,0.4431 0,0.67301 -1.118743,0.88844 -1.35923,0.26173 z m 68.004633,0.009 c -0.38955,-0.28552 -0.49957,-0.70193 -0.49957,-1.89087 v -1.52472 l -1.29522,-0.28169 c -2.37409,-0.51633 -2.27886,-1.51132 0.24477,-2.55731 1.38382,-0.57356 1.43316,-0.62976 1.58345,-1.80403 0.34666,-2.70848 1.2318,-2.76118 3.11521,-0.18547 0.28942,0.39581 0.49811,0.41336 1.74237,0.14652 1.2058,-0.2586 1.47458,-0.24214 1.82872,0.11201 0.46565,0.46565 0.27727,1.031 -0.78324,2.3507 l -0.5829,0.72535 0.59727,1.06271 c 1.12807,2.00713 0.3194,2.93783 -1.61029,1.85328 l -1.03528,-0.58186 -0.89923,1.018 c -0.49458,0.55989 -0.90418,1.1031 -0.91024,1.20712 -0.0278,0.47707 -1.00924,0.70689 -1.49582,0.35026 z m 3.93795,-3.49209 c 0.54254,0.22668 0.98644,0.36551 0.98644,0.30849 0,-0.057 -0.23565,-0.50307 -0.52367,-0.99122 l -0.52367,-0.88755 0.85056,-1.03187 c 0.51933,-0.63004 0.67905,-0.96606 0.41016,-0.86288 -0.24221,0.093 -0.84311,0.24454 -1.33532,0.33688 -0.82842,0.15542 -0.9527,0.0842 -1.67243,-0.95815 l -0.77751,-1.12605 -0.0843,1.16692 c -0.10362,1.4336 -0.28884,1.66862 -1.63232,2.07114 -1.19497,0.35802 -1.41174,0.82595 -0.38262,0.82595 0.37337,0 0.91246,0.12502 1.19798,0.27783 0.44951,0.24056 0.4975,0.46235 0.35787,1.65364 l -0.16126,1.37582 1.15184,-1.28556 1.15185,-1.28555 z m -16.74065,1.23291 c 0,-0.35278 0.17639,-0.52917 0.52917,-0.52917 0.35278,0 0.52917,0.17639 0.52917,0.52917 0,0.35278 -0.17639,0.52917 -0.52917,0.52917 -0.35278,0 -0.52917,-0.17639 -0.52917,-0.52917 z m -45.640619,-0.42064 c -0.873125,-0.0533 -3.730625,-0.22526 -6.35,-0.38212 -8.74594,-0.52374 -16.910965,-1.30918 -19.11259,-1.83854 -2.583299,-0.62114 -4.847251,-1.53836 -7.242788,-2.93434 -1.519577,-0.88552 -1.830234,-1.20288 -2.367145,-2.41818 -0.913522,-2.06777 -0.874819,-4.37294 0.106997,-6.37242 1.641094,-3.34209 5.14672,-6.07054 8.27586,-6.44114 l 1.351489,-0.16007 -0.223036,-0.9595 c -0.744678,-3.20361 0.25332,-7.19894 2.604579,-10.42702 0.750697,-1.03065 1.026801,-1.23318 1.488131,-1.09161 0.850402,0.26097 0.848241,0.27531 -0.219803,1.45751 -0.545999,0.60435 -1.366369,1.88742 -1.823043,2.85126 -0.77417,1.63393 -0.830318,1.94924 -0.830318,4.66285 0,1.60073 0.09486,3.27963 0.210804,3.7309 l 0.210802,0.82048 -1.798251,0.16792 c -3.451315,0.32229 -6.668799,2.62743 -8.184941,5.86404 -0.947534,2.02276 -0.770305,4.95414 0.379939,6.28417 1.099026,1.27083 5.788649,3.27068 9.43664,4.02419 6.700665,1.38406 31.658527,2.4065 42.887463,1.75695 9.77138,-0.56524 21.88577,-1.87569 27.03148,-2.92409 5.77551,-1.17671 8.67249,-3.69872 9.00486,-7.83929 0.11643,-1.45056 0.0375,-1.87981 -0.57691,-3.13552 -0.88255,-1.80387 -2.65123,-3.39378 -4.61193,-4.14577 -1.43456,-0.5502 -3.2216,-0.67301 -6.38892,-0.43905 -1.03807,0.0767 -1.00858,0.21789 -0.5399,-2.58482 0.76238,-4.55905 -1.79298,-9.21069 -6.1903,-11.26844 -1.75743,-0.8224 -4.78977,-1.44619 -5.79891,-1.19291 -0.50721,0.1273 -0.56993,0.2895 -0.47932,1.23959 0.0904,0.94781 0.0395,1.08065 -0.38311,0.99927 -0.36563,-0.0704 -0.62278,-0.62185 -1.02964,-2.20803 -1.32558,-5.16787 -5.24408,-10.13064 -9.66581,-12.24174 -1.97423,-0.94257 -5.74978,-2.06031 -6.02608,-1.78401 -0.0554,0.0554 0.4036,0.35798 1.01997,0.67243 1.61534,0.82409 3.61454,2.93936 4.43686,4.69447 0.58812,1.25527 0.71018,1.88348 0.70613,3.63426 -0.004,1.78629 -0.11767,2.3321 -0.72737,3.49689 -0.87895,1.67916 -2.21286,3.05378 -3.7061,3.81919 -1.33015,0.68181 -4.31858,0.94843 -5.88403,0.52497 -3.498811,-0.94646 -5.84593,-4.41756 -4.90826,-7.25873 0.169643,-0.51403 0.793851,-1.48604 1.387129,-2.16004 3.276772,-3.72261 8.734001,-3.30338 9.387091,0.72112 0.27466,1.69255 -1.46709,4.03432 -2.34653,3.15488 -0.23749,-0.2375 -0.143,-0.48515 0.40222,-1.05424 1.46161,-1.52559 0.63942,-3.76374 -1.53229,-4.17115 -2.44323,-0.45836 -5.649829,1.71424 -6.212542,4.20923 -0.479174,2.12459 1.390925,4.55867 4.109632,5.34902 2.72282,0.79155 5.19591,0.10056 7.07185,-1.97588 1.30091,-1.43995 1.80628,-2.74415 1.82089,-4.69914 0.0288,-3.85954 -3.22356,-7.41717 -7.84457,-8.58076 -1.619659,-0.40783 -3.496158,-0.01 -6.35763,1.34794 -4.818649,2.28671 -7.99937,6.0157 -9.486989,11.12228 -0.422916,1.45175 -0.777127,2.22345 -1.006711,2.19326 -0.194818,-0.0256 -1.128122,-0.37546 -2.074008,-0.77743 -1.46301,-0.62172 -2.095084,-0.73247 -4.233333,-0.74176 -1.432999,-0.006 -2.946111,0.13975 -3.519781,0.33956 -1.00652,0.35058 -2.301052,0.23291 -2.301052,-0.20917 0,-0.49526 2.616525,-1.13841 5.159375,-1.26817 2.330169,-0.11891 2.87746,-0.0571 4.587277,0.5178 1.270267,0.42714 1.969079,0.55192 2.021382,0.36095 1.081164,-3.94756 2.270186,-5.99468 5.165299,-8.89302 3.759914,-3.76411 8.028381,-5.55812 13.205341,-5.55014 3.13935,0.005 5.35335,0.5085 8.09362,1.84121 3.97175,1.93165 6.87799,4.98856 9.08925,9.56047 l 1.2295,2.54207 2.24966,0.13296 c 1.5999,0.0946 2.74618,0.33738 3.96875,0.84069 0.9455,0.38924 1.81784,0.73329 1.93855,0.76455 0.34379,0.089 1.16864,-2.205 1.65388,-4.59976 0.519,-2.5614 0.40231,-6.35942 -0.27094,-8.81784 -1.45238,-5.3035 -5.57229,-10.08909 -10.66127,-12.38388 -3.11747,-1.40578 -2.83827,-1.79597 1.7423,-2.43485 11.34813,-1.58279 22.22784,1.5716 29.23508,8.47623 7.75533,7.64176 10.24714,17.33547 7.03238,27.35757 -1.75488,5.47088 -5.59694,11.20154 -9.51133,14.18669 -0.85359,0.65096 -1.31561,1.20165 -1.31561,1.56812 0,0.9613 -1.55362,3.73217 -2.64593,4.71901 -1.34376,1.214 -3.1769,2.1324 -5.5924,2.80177 -3.49161,0.96758 -16.00613,2.49055 -26.1575,3.18329 -4.26095,0.29076 -18.791262,0.54181 -21.563539,0.37256 z m 57.879419,-14.67152 c 3.05437,-2.72231 6.20641,-7.74082 7.71794,-12.28811 2.26086,-6.80156 1.82234,-13.10623 -1.33706,-19.22341 -4.16176,-8.05794 -11.78871,-13.42892 -21.594,-15.20675 -2.63386,-0.47755 -9.56142,-0.58492 -11.95996,-0.18537 l -1.30825,0.21793 1.76404,1.03165 c 8.45074,4.94218 12.15517,15.11524 8.92085,24.4983 l -0.77521,2.24896 0.98361,0.98349 c 0.82613,0.82601 1.16645,0.98487 2.12549,0.99219 1.3156,0.01 1.97175,-0.27581 3.11578,-1.35733 0.74736,-0.70652 0.8494,-0.73562 1.18049,-0.33668 0.31814,0.38334 0.22868,0.56142 -0.7323,1.45782 -0.68254,0.63666 -1.55039,1.13587 -2.30496,1.32588 -0.66564,0.16761 -1.21026,0.35489 -1.21026,0.41617 0,0.0613 0.22197,0.55316 0.49325,1.09307 0.81616,1.62429 1.17585,3.67206 1.0271,5.84731 l -0.13769,2.0135 2.41753,0.014 c 3.06298,0.0177 4.87707,0.68262 6.89539,2.52725 1.46492,1.33886 2.79817,3.55657 2.79817,4.65445 0,0.33523 0.0953,0.60951 0.21177,0.60951 0.11647,0 0.8852,-0.60022 1.70828,-1.33383 z m -13.05541,-24.58362 c -0.88336,-0.26771 -2.0938,-1.06166 -2.0938,-1.37337 0,-0.49237 0.82529,-0.53576 1.75943,-0.0925 3.13093,1.48572 6.84822,0.0558 7.95485,-3.06003 0.32835,-0.92449 0.60653,-1.30667 0.9511,-1.30667 0.38466,0 0.46927,0.16904 0.40262,0.80445 -0.092,0.87685 0.32532,1.30145 1.28565,1.30816 0.76152,0.005 1.03596,0.48617 0.55308,0.96905 -0.33107,0.33107 -0.53205,0.33439 -1.43383,0.0237 -1.00056,-0.34472 -1.07073,-0.33226 -1.52574,0.27096 -0.46297,0.61378 -0.46064,0.64965 0.0796,1.22473 0.30611,0.32584 0.55656,0.73358 0.55656,0.9061 0,0.44708 -0.93144,0.38851 -1.32292,-0.0832 -0.43266,-0.52133 -0.74266,-0.50137 -2.05418,0.13229 -1.14393,0.55269 -3.73783,0.69287 -5.11243,0.2763 z m 2.20568,-10.12861 c -1.44136,-0.55279 -1.77729,-1.10132 -0.85395,-1.39437 1.19394,-0.37894 3.52926,0.9248 3.04886,1.70209 -0.23012,0.37235 -0.53208,0.33001 -2.19491,-0.30772 z m -87.592862,48.8122 c 0.04904,-0.25466 0.264502,-0.46302 0.478798,-0.46302 0.214297,0 0.429755,0.20836 0.478798,0.46302 0.06256,0.32487 -0.08029,0.46302 -0.478798,0.46302 -0.398502,0 -0.541361,-0.13815 -0.478798,-0.46302 z m 91.327242,-1.51958 c -0.0916,-0.23882 -0.0398,-0.56108 0.1153,-0.71615 0.40313,-0.40312 1.16693,-0.0347 1.06162,0.5121 -0.11729,0.60904 -0.96511,0.75603 -1.17692,0.20405 z m 20.45846,-0.0404 c -0.3635,-0.36349 -0.17496,-0.92492 0.28111,-0.83708 0.25467,0.049 0.46303,0.25621 0.46303,0.46037 0,0.41774 -0.46681,0.65405 -0.74414,0.37671 z M 44.23342,163.42109 c 0,-0.35278 0.17639,-0.52917 0.529166,-0.52917 0.352777,0 0.529167,0.17639 0.529167,0.52917 0,0.35278 -0.17639,0.52917 -0.529167,0.52917 -0.352776,0 -0.529166,-0.17639 -0.529166,-0.52917 z m 7.593869,-2.81308 c -0.102044,-0.10204 -0.185536,-0.41209 -0.185536,-0.689 0,-0.37078 0.156895,-0.48119 0.595312,-0.41893 0.389179,0.0553 0.595313,0.26653 0.595313,0.61009 0,0.52483 -0.654108,0.84882 -1.005089,0.49784 z M 43.713686,159.596 c -0.1836,-0.22123 -0.28197,-0.91418 -0.230834,-1.62609 0.08899,-1.23885 0.08767,-1.24099 -0.940684,-1.53319 -0.566386,-0.16094 -1.150882,-0.48458 -1.298878,-0.7192 -0.50569,-0.80168 -0.03814,-1.21058 1.595586,-1.39541 l 1.560655,-0.17657 0.247673,-1.09352 c 0.342638,-1.5128 1.023419,-1.88654 1.785059,-0.97995 0.318606,0.37923 0.698344,0.88758 0.843865,1.12967 0.21871,0.36384 0.421566,0.39432 1.17003,0.17579 1.682295,-0.4912 2.138524,0.60756 0.817988,1.97001 l -0.790106,0.81518 0.502385,1.32217 c 0.818589,2.15435 -0.189537,3.01518 -1.69314,1.44575 l -0.753306,-0.78628 -1.016751,0.91857 c -1.136052,1.02636 -1.340006,1.08678 -1.799542,0.53307 z m 2.762337,-2.78949 c 0.1261,0 0.447005,0.19704 0.713126,0.43788 0.552802,0.50028 0.655249,0.11216 0.196601,-0.74482 -0.234323,-0.43784 -0.173381,-0.6609 0.330729,-1.21055 l 0.617982,-0.67381 -0.735832,0.17671 c -0.62905,0.15107 -0.801828,0.0607 -1.190625,-0.62247 -0.52119,-0.91586 -0.851668,-1.03033 -0.851668,-0.295 0,0.85045 -0.296354,1.34456 -0.806442,1.34456 -0.707275,0 -0.868606,0.44455 -0.222636,0.61348 0.492051,0.12867 0.531979,0.26941 0.365096,1.28685 l -0.187375,1.14238 0.770884,-0.72761 c 0.423987,-0.40018 0.874059,-0.7276 1.00016,-0.7276 z m 111.528227,-1.05834 c 0,-0.14552 0.18562,-0.26458 0.41249,-0.26458 0.22687,0 0.33891,0.11906 0.24897,0.26458 -0.0899,0.14552 -0.27556,0.26459 -0.41249,0.26459 -0.13693,0 -0.24897,-0.11907 -0.24897,-0.26459 z m -4.47254,-1.57181 c -0.39985,-0.24713 -0.21569,-1.07402 0.23921,-1.07402 0.38739,0 0.65244,0.77631 0.36365,1.0651 -0.13269,0.13269 -0.39628,0.13659 -0.60286,0.009 z m -53.33892,-3.2996 c -0.999986,-0.44445 -2.095898,-1.61325 -1.864184,-1.98817 0.268806,-0.43493 0.805833,-0.33974 1.326007,0.23504 0.640947,0.70824 2.089337,1.14738 3.072287,0.93148 0.44687,-0.0981 1.22648,-0.54193 1.73246,-0.98619 0.99224,-0.8712 1.62409,-0.72436 1.29841,0.30176 -0.46246,1.45709 -3.70237,2.33392 -5.56498,1.50608 z m 57.44942,-1.50915 c -0.55164,-0.78757 -0.17662,-1.66565 0.75875,-1.77656 0.41131,-0.0488 0.835,0.068 0.95959,0.26458 0.38953,0.61446 0.24909,1.51435 -0.28057,1.79782 -0.73808,0.395 -0.99694,0.34354 -1.43777,-0.28584 z m -73.721291,-0.76139 c -0.349044,-0.22541 -0.340963,-0.35535 0.06705,-1.0781 0.452023,-0.80072 0.449287,-0.83364 -0.106629,-1.2838 -0.54509,-0.44138 -0.613855,-0.43828 -1.540934,0.0695 -0.944917,0.51758 -1.859065,0.47497 -1.859065,-0.0866 0,-0.15244 0.423939,-0.47933 0.942086,-0.72642 0.751996,-0.3586 0.908735,-0.55794 0.776811,-0.98791 -0.304353,-0.99193 -0.266589,-1.31153 0.165584,-1.40132 0.265634,-0.0552 0.640519,0.26885 0.983425,0.85003 0.693859,1.17601 2.614731,2.41538 4.085333,2.63591 1.461206,0.21912 3.315264,-0.34508 4.676278,-1.42303 1.71872,-1.36125 2.318517,-0.37611 0.622281,1.02207 -1.68815,1.39151 -4.431448,1.97116 -6.430965,1.35883 -0.536469,-0.16428 -0.786448,-0.0599 -1.322917,0.5523 -0.494728,0.56459 -0.761494,0.69026 -1.058333,0.49856 z m 34.324381,-0.50691 c -0.62667,-0.74475 -0.74159,-0.78355 -1.51862,-0.51268 -1.08509,0.37827 -3.62761,0.14511 -4.78317,-0.43864 -1.10541,-0.55841 -2.35801,-1.70016 -2.35801,-2.14933 0,-0.69547 0.54549,-0.61161 1.68636,0.25923 0.65028,0.49637 1.78058,1.04601 2.51176,1.22142 2.31342,0.55498 4.81156,-0.53275 6.24383,-2.71866 0.25675,-0.39186 0.64561,-0.71248 0.86412,-0.71248 0.38081,0 0.38729,0.25043 0.041,1.58495 -0.0626,0.24113 0.22953,0.54951 0.75185,0.79375 1.02316,0.47845 1.17643,1.32547 0.23985,1.32547 -0.34418,0 -0.91239,-0.22545 -1.26269,-0.501 -0.61487,-0.48365 -0.65732,-0.48447 -1.22631,-0.0237 -0.70681,0.57234 -0.72354,0.73171 -0.14406,1.37203 0.40062,0.44267 0.4045,0.53293 0.0387,0.89875 -0.36581,0.36582 -0.47474,0.32574 -1.08463,-0.39908 z M 51.472851,147.4138 c -0.232198,-0.6051 0.09309,-1.19063 0.661458,-1.19063 0.625801,0 0.9471,0.73116 0.537946,1.22416 -0.398071,0.47965 -1.009034,0.46257 -1.199404,-0.0335 z m 9.167532,-3.7008 c -0.471435,-0.56804 -0.122394,-1.24783 0.588629,-1.1464 0.678108,0.0967 0.962348,0.96632 0.426794,1.30571 -0.496017,0.31434 -0.641236,0.29156 -1.015423,-0.15931 z m -11.279338,-1.5782 c -0.184312,-0.48031 0.0834,-0.93871 0.548224,-0.93871 0.40472,0 0.650222,0.50659 0.480836,0.99219 -0.158094,0.45322 -0.848387,0.41735 -1.02906,-0.0535 z m 4.46352,-0.58477 c -0.192778,-0.0778 -0.330729,-0.60907 -0.330729,-1.27372 0,-1.20532 -0.257214,-1.46147 -1.467538,-1.46147 -0.346781,0 -0.749149,-0.22168 -0.894151,-0.49262 -0.371853,-0.69481 0.175218,-1.34487 1.595557,-1.89592 1.050742,-0.40766 1.207473,-0.58706 1.623644,-1.85852 0.682572,-2.08534 1.160172,-2.28144 2.383041,-0.97846 0.739545,0.78799 0.942007,0.8599 2.421258,0.8599 1.528363,0 1.618372,0.0355 1.692092,0.66688 0.05365,0.45946 -0.166219,0.90072 -0.706903,1.41873 l -0.784764,0.75185 0.773048,1.25636 c 0.869974,1.41389 0.949386,1.91274 0.379744,2.3855 -0.317815,0.26377 -0.710026,0.1997 -2.043438,-0.33379 l -1.650132,-0.66021 -1.092666,0.89536 c -1.09478,0.89709 -1.282761,0.96841 -1.898063,0.72013 z m 4.050181,-2.4911 c 0.691415,0.30584 1.307166,0.50603 1.36834,0.44486 0.06117,-0.0612 -0.213809,-0.60239 -0.611073,-1.20269 l -0.722297,-1.09147 0.768623,-0.8137 0.768622,-0.8137 -1.148545,0.18842 c -1.078315,0.1769 -1.19416,0.13417 -1.894478,-0.6988 l -0.745929,-0.88722 -0.329142,1.29409 c -0.292478,1.14993 -0.446251,1.34008 -1.380495,1.70707 l -1.051354,0.41298 0.89372,0.30632 c 0.800751,0.27446 0.890747,0.40468 0.865114,1.2518 l -0.02861,0.94547 0.995194,-0.79976 0.995193,-0.79976 z m 24.588205,0.016 c -0.112945,-0.18275 0.08918,-0.5991 0.481142,-0.99106 0.822928,-0.82293 2.883821,-1.02465 3.031742,-0.29675 0.08067,0.39695 -0.467993,0.67497 -2.884951,1.46192 -0.238239,0.0776 -0.520808,-7.9e-4 -0.627933,-0.17411 z m 35.972859,0.0364 c -0.13824,-0.12795 -0.70437,-0.37746 -1.25806,-0.55448 -0.7075,-0.2262 -0.98031,-0.45196 -0.91787,-0.75957 0.0667,-0.32845 0.36678,-0.43206 1.20237,-0.41508 1.22053,0.0248 2.17742,0.67239 2.17742,1.47359 0,0.51294 -0.75301,0.67278 -1.20386,0.25554 z m -46.421141,-6.16027 c -0.97005,-0.39896 -4.441301,-0.99556 -5.854583,-1.00621 -0.728454,-0.006 -1.351447,-0.16235 -1.538105,-0.38726 -0.257448,-0.3102 0.09124,-0.70181 1.943579,-2.18281 1.241523,-0.99264 2.148792,-1.84222 2.016154,-1.88798 -0.132638,-0.0457 -1.208903,0.17794 -2.391699,0.4971 -1.667054,0.44981 -2.220655,0.50912 -2.462421,0.26381 -0.49753,-0.50484 0.395962,-0.97928 2.992093,-1.58878 2.47005,-0.5799 4.633447,-0.70779 4.892144,-0.28922 0.20203,0.3269 -0.325004,0.83681 -2.872357,2.77906 l -2.07065,1.57878 2.209903,0.32445 c 2.919688,0.42866 4.326567,0.93256 4.326567,1.54965 0,0.59938 -0.340135,0.6992 -1.190625,0.34941 z m 52.718231,-5.44209 c -0.46413,-0.1619 -0.41318,-1.11457 0.0695,-1.2998 0.22014,-0.0845 0.57025,-0.0125 0.77802,0.15994 0.64144,0.53235 -0.0239,1.42716 -0.84753,1.13986 z m -68.498303,-1.52844 c -0.09201,-0.23977 0.0065,-0.60968 0.218792,-0.82203 0.529407,-0.5294 1.323475,-0.18689 1.221623,0.52694 -0.100348,0.7033 -1.197514,0.92807 -1.440415,0.29509 z m 23.320697,-0.14251 c -0.727604,-0.11332 -2.424245,-0.21648 -3.770312,-0.22923 -2.146115,-0.0203 -2.447251,-0.0802 -2.446208,-0.4862 0.0016,-0.64896 2.608413,-3.49933 4.502047,-4.9228 l 1.585814,-1.19207 -2.10276,-0.18343 c -1.43587,-0.12525 -2.148287,-0.30207 -2.246312,-0.55753 -0.226314,-0.58976 0.500541,-0.70664 3.209991,-0.51619 2.427716,0.17066 3.516698,0.45991 3.516698,0.93411 0,0.12331 -0.760994,0.72 -1.691097,1.32599 -0.930103,0.60598 -2.44815,1.84036 -3.373438,2.74306 l -1.682339,1.64126 3.134016,0.17068 c 3.166895,0.17248 3.813296,0.38057 3.524003,1.13445 -0.171204,0.44615 -0.178207,0.4466 -2.160103,0.1379 z m 41.319096,-1.75171 c -0.097,-0.097 -0.17639,-0.92635 -0.17639,-1.84297 v -1.66658 l -1.33253,-0.17677 c -0.94046,-0.12476 -1.41537,-0.33154 -1.61406,-0.70281 -0.37231,-0.69566 0.25315,-1.31482 2.02055,-2.00018 1.31224,-0.50886 1.32359,-0.52334 1.40599,-1.79558 0.14934,-2.30589 1.13733,-2.61408 2.48823,-0.77617 0.47755,0.64971 1.00189,1.13554 1.16518,1.07962 0.1633,-0.0559 0.82496,-0.18087 1.47037,-0.27766 0.91122,-0.13665 1.25269,-0.0805 1.52794,0.25114 0.39495,0.47589 0.1908,1.06222 -0.79506,2.28342 l -0.55005,0.68137 0.67272,1.26523 c 0.51594,0.97034 0.61026,1.38194 0.40471,1.76602 -0.34904,0.6522 -0.8427,0.63197 -2.08949,-0.0856 l -1.01888,-0.58639 -1.24087,1.38014 c -1.1408,1.26884 -1.88841,1.65371 -2.33836,1.20376 z m 3.34993,-3.79073 c 0.17057,7.9e-4 0.65117,0.17949 1.06799,0.39687 1.02057,0.53227 1.0309,0.5211 0.42988,-0.46465 -0.67752,-1.11121 -0.66322,-1.318 0.15871,-2.2948 0.74777,-0.88868 0.7164,-0.91175 -0.77039,-0.56668 -0.97632,0.2266 -1.03605,0.19917 -1.71979,-0.79002 -0.38959,-0.56362 -0.79112,-1.02929 -0.89228,-1.03481 -0.10117,-0.006 -0.22023,0.5488 -0.26459,1.23184 -0.0802,1.23475 -0.0889,1.24517 -1.51181,1.81576 l -1.43117,0.57389 1.29888,0.24194 1.29888,0.24193 -0.0328,1.5468 -0.0328,1.5468 1.0456,-1.22325 c 0.57508,-0.67279 1.18517,-1.22252 1.35575,-1.22162 z m -41.001173,0.13143 c -0.09143,-0.23827 -0.04402,-0.55544 0.10537,-0.70483 0.431297,-0.43129 1.25386,-0.14061 1.25386,0.4431 0,0.67301 -1.118743,0.88844 -1.35923,0.26173 z m -17.728134,-0.5319 c -0.09201,-0.23977 0.0065,-0.60968 0.218792,-0.82203 0.529408,-0.5294 1.323475,-0.18689 1.221624,0.52694 -0.100349,0.7033 -1.197515,0.92808 -1.440416,0.29509 z m 94.507297,-1.54281 c -0.56643,-0.41419 -0.34707,-0.96877 0.38319,-0.96877 0.68221,0 0.93542,0.50089 0.48229,0.95402 -0.31626,0.31626 -0.45002,0.31854 -0.86548,0.0147 z m -84.080102,-3.6248 c -1.273294,-0.67911 -4.802079,-1.50492 -7.410987,-1.73434 -2.190538,-0.19264 -2.872309,-0.57316 -2.211269,-1.2342 0.616837,-0.61684 7.43313,-2.75373 10.409402,-3.26332 1.49067,-0.25523 2.673024,-0.50134 2.627455,-0.54691 -0.04557,-0.0456 -1.503333,-0.32717 -3.239476,-0.62577 -2.034164,-0.34986 -4.567865,-0.56285 -7.125372,-0.59899 -3.773673,-0.0533 -3.96875,-0.0821 -3.96875,-0.58523 0,-0.49051 0.202959,-0.53499 2.778125,-0.60888 4.086415,-0.11725 9.806456,0.59868 12.930449,1.61838 0.750869,0.2451 0.978231,0.47001 1.043006,1.03179 0.09378,0.81333 0.196916,0.77497 -3.390122,1.26109 -2.473833,0.33526 -5.427226,1.03468 -7.672916,1.81709 -1.252413,0.43634 -1.36303,0.52632 -0.79375,0.64565 0.363802,0.0763 1.605991,0.32733 2.760419,0.55793 2.427488,0.48491 5.542338,1.83962 5.377875,2.33895 -0.174053,0.52846 -1.042328,0.49837 -2.114089,-0.0732 z m 10.522169,0.11461 c -0.233614,-0.23362 -0.368167,-0.62057 -0.299005,-0.8599 0.06916,-0.23932 0.162499,-0.84171 0.207417,-1.33862 0.07876,-0.87124 0.03917,-0.91374 -1.108953,-1.19063 -0.889934,-0.21462 -1.210554,-0.42663 -1.26954,-0.83946 -0.0997,-0.69782 0.380751,-1.09694 1.823225,-1.51458 1.108451,-0.32092 1.148398,-0.371 1.417929,-1.7775 0.247332,-1.29065 0.354235,-1.45615 0.98788,-1.52934 0.586248,-0.0677 0.814607,0.0987 1.305467,0.95164 l 0.594929,1.03371 1.091996,-0.32864 c 2.001184,-0.60227 2.574658,0.36831 1.201738,2.0339 l -0.783876,0.95098 0.698466,1.30986 c 1.117309,2.09533 0.217003,2.94067 -1.630828,1.53126 l -0.877309,-0.66915 -1.114051,1.33061 c -1.190647,1.4221 -1.574425,1.57692 -2.245485,0.90586 z m 3.796996,-3.20152 c 0.949968,0.47391 0.986499,0.41233 0.372253,-0.62751 -0.443336,-0.7505 -0.437968,-0.7772 0.314084,-1.56218 0.785336,-0.81971 0.65124,-0.98105 -0.463214,-0.55733 -0.768326,0.29211 -1.049652,0.13214 -1.587569,-0.90275 l -0.412575,-0.79375 -0.144748,0.66146 c -0.07961,0.3638 -0.180203,0.89658 -0.223536,1.18396 -0.05198,0.34473 -0.476271,0.66932 -1.247119,0.95407 l -1.168334,0.43158 1.004171,0.18838 1.00417,0.18839 -0.131548,1.36905 -0.131548,1.36905 0.996108,-1.15656 0.996109,-1.15657 z m 21.989967,0.74825 c 0,-0.1277 0.16799,-0.3716 0.37331,-0.54201 0.41463,-0.34411 0.8387,0.0469 0.55273,0.50962 -0.2015,0.32602 -0.92604,0.35137 -0.92604,0.0324 z m -15.573171,-0.91355 c -0.398142,-0.47973 -0.144547,-1.14573 0.500492,-1.31441 0.687035,-0.17967 1.239808,0.51197 0.873765,1.09327 -0.368226,0.58476 -0.989507,0.68473 -1.374257,0.22114 z m 10.546081,-0.31777 c 0,-0.45746 0.63149,-0.78467 1.03411,-0.53584 0.41366,0.25566 0.0253,0.94102 -0.53325,0.94102 -0.27547,0 -0.50086,-0.18233 -0.50086,-0.40518 z m 47.44942,-2.12577 c -0.1787,-0.46568 0.15047,-1.20895 0.60206,-1.35947 0.14101,-0.047 0.48969,0.0878 0.77485,0.29948 0.41457,0.30781 0.46003,0.48083 0.22686,0.86346 -0.39531,0.6487 -1.38378,0.76983 -1.60377,0.19653 z M 101.648,105.87422 c -0.4079,-0.49149 0.0667,-1.19063 0.80832,-1.19063 0.5042,0 0.92934,0.86591 0.64835,1.32055 -0.24554,0.3973 -1.08095,0.32278 -1.45667,-0.12992 z m -18.123956,-0.39688 c -0.221467,-0.35834 0.07737,-0.79375 0.544782,-0.79375 0.209693,0 0.38126,0.23813 0.38126,0.52917 0,0.54777 -0.63831,0.73014 -0.926042,0.26458 z m 65.569866,-3.33385 c -0.0894,-0.23289 -0.042,-0.95005 0.1053,-1.59369 0.30054,-1.313331 0.30587,-1.305306 -1.03541,-1.55693 -1.29964,-0.243816 -1.94637,-0.952016 -1.54841,-1.695601 0.23721,-0.443235 0.54854,-0.551177 1.58969,-0.551177 1.49712,0 1.98768,-0.369015 2.23367,-1.680224 0.34235,-1.824931 1.45304,-1.845452 2.42078,-0.04473 0.39721,0.739103 0.63516,0.923761 1.04368,0.809932 0.29104,-0.0811 0.77994,-0.214656 1.08644,-0.296804 0.5463,-0.146418 1.4271,0.449413 1.4271,0.965382 0,0.134708 -0.41589,0.705268 -0.92421,1.267916 l -0.92421,1.02299 0.49733,1.445526 c 0.81762,2.37646 -0.1564,3.12523 -1.82541,1.40326 l -0.89906,-0.9276 -0.94993,0.9276 c -1.00664,0.98295 -2.02764,1.20701 -2.29735,0.50415 z m 3.93058,-2.368822 c 0.77351,0.456922 0.82152,0.459152 0.65704,0.03052 -0.51733,-1.348132 -0.4797,-1.66637 0.2679,-2.265342 l 0.74753,-0.598921 -0.99087,0.178908 c -0.94069,0.16985 -1.01351,0.131422 -1.43807,-0.758872 -0.24596,-0.515782 -0.52899,-0.937784 -0.62896,-0.937784 -0.1,0 -0.25584,0.463254 -0.34638,1.029454 -0.17111,1.070097 -0.50369,1.336974 -1.71059,1.372685 l -0.70596,0.02087 0.79375,0.283369 c 1.03616,0.369911 1.18203,0.634336 0.89741,1.626772 -0.3793,1.322543 -0.28884,1.378143 0.69338,0.426143 l 0.92934,-0.900755 0.83448,0.49294 z m -52.32424,0.819572 c -0.47455,-0.35183 -0.47876,-0.40535 -0.0649,-0.825451 0.48706,-0.494456 1.27729,-0.343566 1.27729,0.243891 0,0.68385 -0.6523,0.99676 -1.21234,0.58156 z m -19.810919,-0.50001 c -0.616082,-0.450488 -0.371443,-1.231472 0.385755,-1.231472 0.694052,0 0.982429,0.718463 0.487164,1.213732 -0.321554,0.32155 -0.453761,0.32424 -0.872919,0.0177 z m 30.434549,-0.352404 c -0.0964,-0.2511 0.006,-0.620422 0.23628,-0.850448 0.36573,-0.365739 0.45084,-0.362355 0.84688,0.0337 0.36372,0.363714 0.38109,0.511627 0.0999,0.850444 -0.44546,0.536748 -0.96989,0.521818 -1.18306,-0.03369 z m 21.13383,-0.372954 c -0.27266,-0.441172 0.34058,-0.947079 0.70557,-0.582084 0.30531,0.305308 0.11423,0.86972 -0.29445,0.86972 -0.12834,0 -0.31334,-0.129437 -0.41112,-0.287636 z m -13.95906,-1.47074 c -0.37452,-0.374523 -0.16259,-0.887457 0.36667,-0.887457 0.36988,0 0.5207,0.143682 0.46302,0.441095 -0.0944,0.48696 -0.5461,0.729948 -0.82969,0.446362 z m 22.48407,-0.53468 c -0.31321,-0.313209 -0.18737,-1.085697 0.20115,-1.234784 0.48384,-0.185671 1.05143,0.488587 0.85099,1.01093 -0.15813,0.412084 -0.74009,0.535903 -1.05214,0.223854 z m 0.27002,-7.859744 c -0.0827,-0.215514 0.0154,-0.529442 0.21807,-0.697619 0.53875,-0.447122 1.3199,-0.208616 1.3199,0.403003 0,0.652777 -1.30463,0.902694 -1.53797,0.294616 z m 11.30425,-1.321901 c -0.19859,-0.517506 0.072,-0.960715 0.58649,-0.960715 0.25975,0 0.37006,0.201136 0.31511,0.574587 -0.10266,0.697712 -0.68615,0.947598 -0.9016,0.386128 z"
       id="path890" />
  </g>
</svg>
